<mxfile host="app.diagrams.net" modified="2021-04-28T08:38:40.499Z" agent="5.0 (Macintosh; Intel Mac OS X 10_15_7) AppleWebKit/537.36 (KHTML, like Gecko) Chrome/90.0.4430.85 Safari/537.36" etag="9Uyp3k0SpkMaKXGbTVPa" version="14.6.6" type="github">
  <diagram id="yY90U4RdEbYdxf410obB" name="Page-1">
    <mxGraphModel dx="1306" dy="664" grid="1" gridSize="10" guides="1" tooltips="1" connect="1" arrows="1" fold="1" page="1" pageScale="1" pageWidth="850" pageHeight="1100" math="0" shadow="0">
      <root>
        <mxCell id="0" />
        <mxCell id="1" parent="0" />
        <mxCell id="WH1sUQ4tS5VsA4-MWuWP-1" value="Business Owner" style="shape=umlActor;verticalLabelPosition=bottom;verticalAlign=top;html=1;outlineConnect=0;" vertex="1" parent="1">
          <mxGeometry x="140" y="305" width="30" height="60" as="geometry" />
        </mxCell>
        <mxCell id="WH1sUQ4tS5VsA4-MWuWP-2" value="Customer&amp;nbsp;" style="shape=umlActor;verticalLabelPosition=bottom;verticalAlign=top;html=1;outlineConnect=0;" vertex="1" parent="1">
          <mxGeometry x="140" y="695" width="30" height="60" as="geometry" />
        </mxCell>
        <mxCell id="WH1sUQ4tS5VsA4-MWuWP-5" value="" style="endArrow=none;html=1;" edge="1" parent="1">
          <mxGeometry width="50" height="50" relative="1" as="geometry">
            <mxPoint x="240" y="880" as="sourcePoint" />
            <mxPoint x="240" y="180" as="targetPoint" />
          </mxGeometry>
        </mxCell>
        <mxCell id="WH1sUQ4tS5VsA4-MWuWP-6" value="" style="endArrow=none;html=1;" edge="1" parent="1">
          <mxGeometry width="50" height="50" relative="1" as="geometry">
            <mxPoint x="240" y="880" as="sourcePoint" />
            <mxPoint x="720" y="880" as="targetPoint" />
          </mxGeometry>
        </mxCell>
        <mxCell id="WH1sUQ4tS5VsA4-MWuWP-7" value="" style="endArrow=none;html=1;" edge="1" parent="1">
          <mxGeometry width="50" height="50" relative="1" as="geometry">
            <mxPoint x="720" y="880" as="sourcePoint" />
            <mxPoint x="720" y="180" as="targetPoint" />
          </mxGeometry>
        </mxCell>
        <mxCell id="WH1sUQ4tS5VsA4-MWuWP-8" value="" style="endArrow=none;html=1;" edge="1" parent="1">
          <mxGeometry width="50" height="50" relative="1" as="geometry">
            <mxPoint x="240" y="180" as="sourcePoint" />
            <mxPoint x="720" y="180" as="targetPoint" />
          </mxGeometry>
        </mxCell>
        <mxCell id="WH1sUQ4tS5VsA4-MWuWP-9" value="Sign Up" style="ellipse;whiteSpace=wrap;html=1;" vertex="1" parent="1">
          <mxGeometry x="410" y="310" width="100" height="50" as="geometry" />
        </mxCell>
        <mxCell id="WH1sUQ4tS5VsA4-MWuWP-10" value="Add Products" style="ellipse;whiteSpace=wrap;html=1;" vertex="1" parent="1">
          <mxGeometry x="410" y="190" width="100" height="50" as="geometry" />
        </mxCell>
        <mxCell id="WH1sUQ4tS5VsA4-MWuWP-11" value="Login" style="ellipse;whiteSpace=wrap;html=1;" vertex="1" parent="1">
          <mxGeometry x="410" y="430" width="100" height="50" as="geometry" />
        </mxCell>
        <mxCell id="WH1sUQ4tS5VsA4-MWuWP-12" value="Remove Products" style="ellipse;whiteSpace=wrap;html=1;" vertex="1" parent="1">
          <mxGeometry x="410" y="250" width="100" height="50" as="geometry" />
        </mxCell>
        <mxCell id="WH1sUQ4tS5VsA4-MWuWP-13" value="Fufill Orders" style="ellipse;whiteSpace=wrap;html=1;" vertex="1" parent="1">
          <mxGeometry x="410" y="370" width="100" height="50" as="geometry" />
        </mxCell>
        <mxCell id="WH1sUQ4tS5VsA4-MWuWP-14" value="Watch Tutorial" style="ellipse;whiteSpace=wrap;html=1;" vertex="1" parent="1">
          <mxGeometry x="410" y="490" width="100" height="50" as="geometry" />
        </mxCell>
        <mxCell id="WH1sUQ4tS5VsA4-MWuWP-15" value="" style="endArrow=none;html=1;entryX=0;entryY=0.5;entryDx=0;entryDy=0;" edge="1" parent="1" target="WH1sUQ4tS5VsA4-MWuWP-10">
          <mxGeometry width="50" height="50" relative="1" as="geometry">
            <mxPoint x="180" y="340" as="sourcePoint" />
            <mxPoint x="450" y="370" as="targetPoint" />
          </mxGeometry>
        </mxCell>
        <mxCell id="WH1sUQ4tS5VsA4-MWuWP-16" value="" style="endArrow=none;html=1;entryX=0;entryY=0.5;entryDx=0;entryDy=0;" edge="1" parent="1">
          <mxGeometry width="50" height="50" relative="1" as="geometry">
            <mxPoint x="180" y="340" as="sourcePoint" />
            <mxPoint x="410" y="272.5" as="targetPoint" />
          </mxGeometry>
        </mxCell>
        <mxCell id="WH1sUQ4tS5VsA4-MWuWP-17" value="" style="endArrow=none;html=1;entryX=0;entryY=0.5;entryDx=0;entryDy=0;" edge="1" parent="1" target="WH1sUQ4tS5VsA4-MWuWP-9">
          <mxGeometry width="50" height="50" relative="1" as="geometry">
            <mxPoint x="180" y="340" as="sourcePoint" />
            <mxPoint x="550" y="312.5" as="targetPoint" />
          </mxGeometry>
        </mxCell>
        <mxCell id="WH1sUQ4tS5VsA4-MWuWP-18" value="" style="endArrow=none;html=1;entryX=0;entryY=0.5;entryDx=0;entryDy=0;" edge="1" parent="1" target="WH1sUQ4tS5VsA4-MWuWP-13">
          <mxGeometry width="50" height="50" relative="1" as="geometry">
            <mxPoint x="180" y="340" as="sourcePoint" />
            <mxPoint x="590" y="352.5" as="targetPoint" />
          </mxGeometry>
        </mxCell>
        <mxCell id="WH1sUQ4tS5VsA4-MWuWP-19" value="" style="endArrow=none;html=1;entryX=0;entryY=0.5;entryDx=0;entryDy=0;" edge="1" parent="1" target="WH1sUQ4tS5VsA4-MWuWP-11">
          <mxGeometry width="50" height="50" relative="1" as="geometry">
            <mxPoint x="180" y="340" as="sourcePoint" />
            <mxPoint x="550" y="402.5" as="targetPoint" />
          </mxGeometry>
        </mxCell>
        <mxCell id="WH1sUQ4tS5VsA4-MWuWP-20" value="" style="endArrow=none;html=1;entryX=0;entryY=0.5;entryDx=0;entryDy=0;" edge="1" parent="1" target="WH1sUQ4tS5VsA4-MWuWP-14">
          <mxGeometry width="50" height="50" relative="1" as="geometry">
            <mxPoint x="180" y="340" as="sourcePoint" />
            <mxPoint x="550" y="472.5" as="targetPoint" />
          </mxGeometry>
        </mxCell>
        <mxCell id="WH1sUQ4tS5VsA4-MWuWP-21" value="Add Products to Cart" style="ellipse;whiteSpace=wrap;html=1;" vertex="1" parent="1">
          <mxGeometry x="410" y="580" width="100" height="50" as="geometry" />
        </mxCell>
        <mxCell id="WH1sUQ4tS5VsA4-MWuWP-22" value="Remove Products From Cart" style="ellipse;whiteSpace=wrap;html=1;" vertex="1" parent="1">
          <mxGeometry x="410" y="640" width="100" height="50" as="geometry" />
        </mxCell>
        <mxCell id="WH1sUQ4tS5VsA4-MWuWP-23" value="Complete Order" style="ellipse;whiteSpace=wrap;html=1;" vertex="1" parent="1">
          <mxGeometry x="410" y="700" width="100" height="50" as="geometry" />
        </mxCell>
        <mxCell id="WH1sUQ4tS5VsA4-MWuWP-24" value="Add Services to Cart" style="ellipse;whiteSpace=wrap;html=1;" vertex="1" parent="1">
          <mxGeometry x="410" y="760" width="100" height="50" as="geometry" />
        </mxCell>
        <mxCell id="WH1sUQ4tS5VsA4-MWuWP-25" value="Remove Services from Cart" style="ellipse;whiteSpace=wrap;html=1;" vertex="1" parent="1">
          <mxGeometry x="410" y="820" width="100" height="50" as="geometry" />
        </mxCell>
        <mxCell id="WH1sUQ4tS5VsA4-MWuWP-27" value="" style="endArrow=none;html=1;entryX=0;entryY=0.5;entryDx=0;entryDy=0;" edge="1" parent="1" target="WH1sUQ4tS5VsA4-MWuWP-21">
          <mxGeometry width="50" height="50" relative="1" as="geometry">
            <mxPoint x="180" y="730" as="sourcePoint" />
            <mxPoint x="550" y="560" as="targetPoint" />
          </mxGeometry>
        </mxCell>
        <mxCell id="WH1sUQ4tS5VsA4-MWuWP-28" value="" style="endArrow=none;html=1;entryX=0;entryY=0.5;entryDx=0;entryDy=0;" edge="1" parent="1" target="WH1sUQ4tS5VsA4-MWuWP-22">
          <mxGeometry width="50" height="50" relative="1" as="geometry">
            <mxPoint x="180" y="730" as="sourcePoint" />
            <mxPoint x="430" y="725" as="targetPoint" />
          </mxGeometry>
        </mxCell>
        <mxCell id="WH1sUQ4tS5VsA4-MWuWP-29" value="" style="endArrow=none;html=1;entryX=0;entryY=0.5;entryDx=0;entryDy=0;" edge="1" parent="1" target="WH1sUQ4tS5VsA4-MWuWP-23">
          <mxGeometry width="50" height="50" relative="1" as="geometry">
            <mxPoint x="180" y="730" as="sourcePoint" />
            <mxPoint x="550" y="695" as="targetPoint" />
          </mxGeometry>
        </mxCell>
        <mxCell id="WH1sUQ4tS5VsA4-MWuWP-30" value="" style="endArrow=none;html=1;entryX=0;entryY=0.5;entryDx=0;entryDy=0;" edge="1" parent="1" target="WH1sUQ4tS5VsA4-MWuWP-24">
          <mxGeometry width="50" height="50" relative="1" as="geometry">
            <mxPoint x="180" y="730" as="sourcePoint" />
            <mxPoint x="420" y="755" as="targetPoint" />
          </mxGeometry>
        </mxCell>
        <mxCell id="WH1sUQ4tS5VsA4-MWuWP-31" value="" style="endArrow=none;html=1;entryX=0;entryY=0.5;entryDx=0;entryDy=0;" edge="1" parent="1" target="WH1sUQ4tS5VsA4-MWuWP-25">
          <mxGeometry width="50" height="50" relative="1" as="geometry">
            <mxPoint x="180" y="730" as="sourcePoint" />
            <mxPoint x="380" y="765" as="targetPoint" />
          </mxGeometry>
        </mxCell>
      </root>
    </mxGraphModel>
  </diagram>
</mxfile>
